# xmcd
#
# Track frame offsets:
#	150
#	18215
#	36012
#	52071
#	69419
#	86628
#	107780
#	128532
#	142569
#	160505
#	181772
#	194904
#
# Disc length: 2818 seconds
#
# Revision: 0
# Processed by: cddbd v1.4PL0 Copyright (c) Steve Scherf et al.
# Submitted via: dBpowerAMP V4.0
#
DISCID=940b000c
DTITLE=Adam Carroll - South Of Town
DYEAR=2000
DGENRE=Country
TTITLE0=Red Bandanna Blues
TTITLE1=Cole
TTITLE2=Bubble Gum
TTITLE3=Fortune Teller Eyes
TTITLE4=Smokey Mountain Taxi
TTITLE5=South Of Town
TTITLE6=Stranger's Advice
TTITLE7=Home Again
TTITLE8=Cane River Blues
TTITLE9=Silver Lakeside
TTITLE10=Pokin' Round In The Ashes
TTITLE11=Lacy
EXTD=
EXTT0=
EXTT1=
EXTT2=
EXTT3=
EXTT4=
EXTT5=
EXTT6=
EXTT7=
EXTT8=
EXTT9=
EXTT10=
EXTT11=
PLAYORDER=
